<mxfile host="app.diagrams.net" modified="2024-05-12T07:26:09.338Z" agent="Mozilla/5.0 (Windows NT 10.0; Win64; x64) AppleWebKit/537.36 (KHTML, like Gecko) Chrome/124.0.0.0 Safari/537.36" version="24.4.0" etag="94GHQe0gbtS8lGEsgE0r" type="github">
  <diagram name="第 1 页" id="L03meI4OPIcWbZGjwbfz">
    <mxGraphModel>
      <root>
        <mxCell id="0" />
        <mxCell id="1" parent="0" />
      </root>
    </mxGraphModel>
  </diagram>
</mxfile>
